<svg width="24" height="25" viewBox="0 0 24 25" fill="none" xmlns="http://www.w3.org/2000/svg">
<g clip-path="url(#clip0_0_1042)">
<path d="M17.4864 0.321145C16.1252 0.41302 14.6683 1.22302 13.7664 2.31614C12.977 3.27802 12.3152 4.6899 12.5664 6.15615C12.3414 6.08677 12.137 6.07927 11.8914 5.99115C11.222 5.75302 10.457 5.49615 9.5064 5.49615C7.61828 5.49615 5.68515 6.61927 4.4664 8.49614C2.69265 11.2224 3.0489 16.0205 5.7414 20.1211C6.21578 20.8411 6.7689 21.6268 7.4514 22.2511C8.1339 22.8755 8.9589 23.3518 9.9264 23.3611C10.7533 23.3705 11.3289 23.0949 11.8464 22.8661C12.3639 22.6374 12.8458 22.4349 13.7514 22.4311C13.757 22.4311 13.7608 22.4311 13.7664 22.4311C14.6683 22.4236 15.1352 22.6224 15.6414 22.8511C16.1477 23.0799 16.7177 23.3686 17.5464 23.3611C18.5327 23.3536 19.3708 22.8136 20.0664 22.1461C20.762 21.4786 21.3339 20.6593 21.8064 19.9411C22.4833 18.9099 22.7552 18.3474 23.2764 17.1961C23.3308 17.0761 23.3327 16.9374 23.2802 16.8155C23.2295 16.6936 23.1302 16.598 23.0064 16.5511C21.3002 15.9061 20.327 14.3968 20.1864 12.8011C20.0458 11.2055 20.7208 9.56302 22.4214 8.63114C22.547 8.56364 22.6352 8.44552 22.6652 8.30677C22.6933 8.16802 22.6595 8.02177 22.5714 7.91115C21.3508 6.39427 19.6333 5.49615 17.9514 5.49615C16.8789 5.49615 16.0914 5.74927 15.4464 5.99115C15.3395 6.0324 15.2608 6.02865 15.1614 6.06614C15.8158 5.72115 16.3933 5.24302 16.8264 4.68614C17.6139 3.67552 18.2214 2.2374 17.9964 0.726145C17.9589 0.478645 17.7358 0.302395 17.4864 0.321145ZM16.9764 1.46114C16.9445 2.43052 16.6127 3.37927 16.0614 4.08614C15.4839 4.82864 14.5127 5.3424 13.5714 5.49615C13.5883 4.56427 13.9558 3.59864 14.5164 2.91614C15.1052 2.20364 16.0802 1.68989 16.9764 1.46114ZM9.5064 6.45615C9.9264 6.45615 10.9014 6.65677 11.5614 6.89115C12.2214 7.12552 12.917 7.40114 13.7364 7.40114C14.537 7.40114 15.1708 7.12365 15.7914 6.89115C16.412 6.65865 17.0308 6.45615 17.9514 6.45615C19.1533 6.45615 20.4527 7.08052 21.4764 8.16614C19.8377 9.32302 19.0708 11.1268 19.2264 12.8761C19.382 14.6443 20.447 16.3224 22.1964 17.1961C22.1939 17.2016 22.1914 17.207 22.1889 17.2125C21.8143 18.0284 21.5646 18.5724 21.0114 19.4161C20.552 20.1155 20.0064 20.8805 19.4064 21.4561C18.8064 22.0318 18.1708 22.3955 17.5314 22.4011C16.9145 22.4068 16.5639 22.223 16.0314 21.9811C15.4989 21.7393 14.8108 21.4618 13.7514 21.4711C12.6939 21.4768 11.9964 21.743 11.4564 21.9811C10.9164 22.2193 10.562 22.4068 9.9414 22.4011C9.28515 22.3955 8.67578 22.0768 8.0964 21.5461C7.51703 21.0155 6.9939 20.2918 6.5364 19.5961C4.0164 15.7561 3.8139 11.2449 5.2614 9.02114C6.32265 7.38802 9.0864 6.45615 9.5064 6.45615Z" fill="black"/>
<path d="M9.5064 6.45615C9.9264 6.45615 10.9014 6.65677 11.5614 6.89115C12.2214 7.12552 12.917 7.40114 13.7364 7.40114C14.537 7.40114 15.1708 7.12365 15.7914 6.89115C16.412 6.65865 17.0308 6.45615 17.9514 6.45615C19.1533 6.45615 20.4527 7.08052 21.4764 8.16614C19.8377 9.32302 19.0708 11.1268 19.2264 12.8761C19.382 14.6443 20.447 16.3224 22.1964 17.1961L22.1889 17.2125C21.8143 18.0284 21.5646 18.5724 21.0114 19.4161C20.552 20.1155 20.0064 20.8805 19.4064 21.4561C18.8064 22.0318 18.1708 22.3955 17.5314 22.4011C16.9145 22.4068 16.5639 22.223 16.0314 21.9811C15.4989 21.7393 14.8108 21.4618 13.7514 21.4711C12.6939 21.4768 11.9964 21.743 11.4564 21.9811C10.9164 22.2193 10.562 22.4068 9.9414 22.4011C9.28515 22.3955 8.67578 22.0768 8.0964 21.5461C7.51703 21.0155 6.9939 20.2918 6.5364 19.5961C4.0164 15.7561 3.8139 11.2449 5.2614 9.02114C6.32265 7.38802 9.0864 6.45615 9.5064 6.45615Z" fill="black"/>
<path d="M16.9764 1.46114C16.9445 2.43052 16.6127 3.37927 16.0614 4.08614C15.4839 4.82864 14.5127 5.3424 13.5714 5.49615C13.5883 4.56427 13.9558 3.59864 14.5164 2.91614C15.1052 2.20364 16.0802 1.68989 16.9764 1.46114Z" fill="black"/>
</g>
<defs>
<clipPath id="clip0_0_1042">
<rect width="24" height="24" fill="white" transform="translate(0 0.320755)"/>
</clipPath>
</defs>
</svg>
