<svg width="22" height="20" viewBox="0 0 22 20" fill="none" xmlns="http://www.w3.org/2000/svg">
<path d="M18.1 18.9L14.6 15.45C14.0167 15.6333 13.425 15.7708 12.825 15.8625C12.225 15.9542 11.6167 16 11 16C8.76669 16 6.72502 15.4 4.87502 14.2C3.02502 13 1.57502 11.4167 0.525024 9.45C0.441691 9.3 0.379191 9.14583 0.337524 8.9875C0.295858 8.82917 0.275024 8.66667 0.275024 8.5C0.275024 8.33333 0.295858 8.17083 0.337524 8.0125C0.379191 7.85417 0.441691 7.7 0.525024 7.55C0.891691 6.9 1.28336 6.26667 1.70002 5.65C2.11669 5.03333 2.60002 4.48333 3.15002 4L1.07502 1.9C0.891691 1.71667 0.800024 1.4875 0.800024 1.2125C0.800024 0.9375 0.900024 0.7 1.10002 0.5C1.28336 0.316667 1.51669 0.225 1.80002 0.225C2.08336 0.225 2.31669 0.316667 2.50002 0.5L19.5 17.5C19.6834 17.6833 19.7792 17.9125 19.7875 18.1875C19.7959 18.4625 19.7 18.7 19.5 18.9C19.3167 19.0833 19.0834 19.175 18.8 19.175C18.5167 19.175 18.2834 19.0833 18.1 18.9ZM11 13C11.1834 13 11.3584 12.9917 11.525 12.975C11.6917 12.9583 11.8584 12.925 12.025 12.875L6.62502 7.475C6.57502 7.64167 6.54169 7.80833 6.52502 7.975C6.50836 8.14167 6.50002 8.31667 6.50002 8.5C6.50002 9.75 6.93752 10.8125 7.81252 11.6875C8.68752 12.5625 9.75002 13 11 13ZM11 1C13.2334 1 15.2792 1.60417 17.1375 2.8125C18.9959 4.02083 20.45 5.60833 21.5 7.575C21.5834 7.70833 21.6459 7.85417 21.6875 8.0125C21.7292 8.17083 21.75 8.33333 21.75 8.5C21.75 8.66667 21.7334 8.82917 21.7 8.9875C21.6667 9.14583 21.6084 9.29167 21.525 9.425C21.2084 10.0417 20.8542 10.625 20.4625 11.175C20.0709 11.725 19.6334 12.2417 19.15 12.725C18.9167 12.9583 18.6417 13.0667 18.325 13.05C18.0084 13.0333 17.7334 12.9083 17.5 12.675L15.5 10.675C15.3834 10.5583 15.3084 10.4208 15.275 10.2625C15.2417 10.1042 15.25 9.94167 15.3 9.775C15.3667 9.55833 15.4167 9.35 15.45 9.15C15.4834 8.95 15.5 8.73333 15.5 8.5C15.5 7.25 15.0625 6.1875 14.1875 5.3125C13.3125 4.4375 12.25 4 11 4C10.7667 4 10.55 4.01667 10.35 4.05C10.15 4.08333 9.94169 4.13333 9.72502 4.2C9.55836 4.25 9.39169 4.25833 9.22502 4.225C9.05836 4.19167 8.91669 4.11667 8.80002 4L7.97502 3.175C7.65836 2.85833 7.55419 2.49167 7.66252 2.075C7.77086 1.65833 8.03336 1.39167 8.45002 1.275C8.86669 1.19167 9.28752 1.125 9.71252 1.075C10.1375 1.025 10.5667 1 11 1ZM12.975 6.65C13.1584 6.86667 13.3125 7.10417 13.4375 7.3625C13.5625 7.62083 13.6417 7.89167 13.675 8.175C13.6917 8.30833 13.6417 8.4 13.525 8.45C13.4084 8.5 13.3 8.475 13.2 8.375L11.15 6.325C11.05 6.225 11.0292 6.11667 11.0875 6C11.1459 5.88333 11.2417 5.825 11.375 5.825C11.6917 5.85833 11.9834 5.94583 12.25 6.0875C12.5167 6.22917 12.7584 6.41667 12.975 6.65Z" fill="#707070"/>
</svg>
