<svg width="14" height="20" viewBox="0 0 14 20" fill="none" xmlns="http://www.w3.org/2000/svg">
<path fill-rule="evenodd" clip-rule="evenodd" d="M2.15282 8.61043C1.33802 8.61043 1.16797 8.77035 1.16797 9.53635V10.9253C1.16797 11.6913 1.33802 11.8512 2.15282 11.8512H4.12251V17.4068C4.12251 18.1728 4.29256 18.3327 5.10736 18.3327H7.07705C7.89189 18.3327 8.06189 18.1728 8.06189 17.4068V11.8512H10.2736C10.8916 11.8512 11.0508 11.7383 11.2206 11.1797L11.6426 9.79077C11.9334 8.83385 11.7542 8.61043 10.6956 8.61043H8.06189V6.29565C8.06189 5.78427 8.5028 5.36972 9.04672 5.36972H11.8498C12.6646 5.36972 12.8346 5.20984 12.8346 4.44379V2.59194C12.8346 1.82589 12.6646 1.66602 11.8498 1.66602H9.04672C6.32714 1.66602 4.12251 3.73877 4.12251 6.29565V8.61043H2.15282Z" stroke="#DFDFDF" stroke-width="1.42857" stroke-linejoin="round"/>
</svg>
