<svg width="21" height="20" viewBox="0 0 21 20" fill="none" xmlns="http://www.w3.org/2000/svg">
<path d="M2.5105 9.99772C2.5105 6.26577 2.5105 4.3998 3.66986 3.24042C4.82924 2.08105 6.69521 2.08105 10.4272 2.08105C14.1591 2.08105 16.0251 2.08105 17.1845 3.24042C18.3438 4.3998 18.3438 6.26577 18.3438 9.99772C18.3438 13.7296 18.3438 15.5956 17.1845 16.7551C16.0251 17.9144 14.1591 17.9144 10.4272 17.9144C6.69521 17.9144 4.82924 17.9144 3.66986 16.7551C2.5105 15.5956 2.5105 13.7296 2.5105 9.99772Z" stroke="#DFDFDF" stroke-width="1.42857" stroke-linejoin="round"/>
<path d="M14.1785 10C14.1785 12.0711 12.4996 13.75 10.4285 13.75C8.3574 13.75 6.67847 12.0711 6.67847 10C6.67847 7.92893 8.3574 6.25 10.4285 6.25C12.4996 6.25 14.1785 7.92893 14.1785 10Z" stroke="#DFDFDF" stroke-width="1.42857"/>
<path d="M15.018 5.41553H15.0105" stroke="#DFDFDF" stroke-width="1.42857" stroke-linecap="round" stroke-linejoin="round"/>
</svg>
