<svg width="21" height="20" viewBox="0 0 21 20" fill="none" xmlns="http://www.w3.org/2000/svg">
<path d="M4.0367 7.91589H3.62004C2.83436 7.91589 2.44153 7.91589 2.19744 8.15997C1.95337 8.40406 1.95337 8.79689 1.95337 9.58256V16.6659C1.95337 17.4516 1.95337 17.8444 2.19744 18.0885C2.44153 18.3326 2.83436 18.3326 3.62004 18.3326H4.0367C4.82238 18.3326 5.21521 18.3326 5.45929 18.0885C5.70337 17.8444 5.70337 17.4516 5.70337 16.6659V9.58256C5.70337 8.79689 5.70337 8.40406 5.45929 8.15997C5.21521 7.91589 4.82238 7.91589 4.0367 7.91589Z" stroke="#DFDFDF" stroke-width="1.42857"/>
<path d="M5.70337 3.54089C5.70337 4.57643 4.8639 5.41589 3.82837 5.41589C2.79284 5.41589 1.95337 4.57643 1.95337 3.54089C1.95337 2.50536 2.79284 1.66589 3.82837 1.66589C4.8639 1.66589 5.70337 2.50536 5.70337 3.54089Z" stroke="#DFDFDF" stroke-width="1.42857"/>
<path d="M10.5584 7.91589H9.87004C9.08437 7.91589 8.69154 7.91589 8.44744 8.15997C8.20337 8.40406 8.20337 8.79689 8.20337 9.58256V16.6659C8.20337 17.4516 8.20337 17.8444 8.44744 18.0885C8.69154 18.3326 9.08437 18.3326 9.87004 18.3326H10.2867C11.0724 18.3326 11.4652 18.3326 11.7093 18.0885C11.9534 17.8444 11.9534 17.4516 11.9534 16.6659L11.9535 13.7493C11.9535 12.3686 12.3935 11.2493 13.6933 11.2493C14.3431 11.2493 14.87 11.809 14.87 12.4993V16.2493C14.87 17.035 14.87 17.4278 15.1141 17.6719C15.3581 17.916 15.751 17.916 16.5367 17.916H16.9523C17.7378 17.916 18.1305 17.916 18.3746 17.672C18.6187 17.428 18.6188 17.0352 18.619 16.2497L18.6201 11.6661C18.6201 9.59506 16.6504 7.91609 14.7007 7.91609C13.5908 7.91609 12.6006 8.46014 11.9535 9.31089C11.9534 8.78581 11.9534 8.52331 11.8394 8.32839C11.7671 8.20494 11.6643 8.10217 11.5409 8.02995C11.346 7.91589 11.0835 7.91589 10.5584 7.91589Z" stroke="#DFDFDF" stroke-width="1.42857" stroke-linejoin="round"/>
</svg>
